<svg xmlns="http://www.w3.org/2000/svg" version="1.1" xmlns:xlink="http://www.w3.org/1999/xlink" xmlns:svgjs="http://svgjs.com/svgjs" width="558.0871" height="461.00467"><svg version="1.1" id="SvgjsSvg1057" width="558.0871" height="461.00467" viewBox="0 0 558.08708 461.00468" sodipodi:docname="wings-1.svg" inkscape:version="1.1.2 (b8e25be833, 2022-02-05)" xmlns:inkscape="http://www.inkscape.org/namespaces/inkscape" xmlns:sodipodi="http://sodipodi.sourceforge.net/DTD/sodipodi-0.dtd" xmlns="http://www.w3.org/2000/svg" xmlns:svg="http://www.w3.org/2000/svg">
  <sodipodi:namedview id="SvgjsSodipodi:namedview1056" pagecolor="#ffffff" bordercolor="#666666" borderopacity="1.0" inkscape:pageshadow="2" inkscape:pageopacity="0.0" inkscape:pagecheckerboard="0" showgrid="false" inkscape:lockguides="false" inkscape:zoom="0.56389548" inkscape:cx="193.29823" inkscape:cy="257.13985" inkscape:window-width="1366" inkscape:window-height="705" inkscape:window-x="-8" inkscape:window-y="-8" inkscape:window-maximized="1" inkscape:current-layer="g9348" fit-margin-top="0" fit-margin-left="0" fit-margin-right="0" fit-margin-bottom="0" showguides="true" inkscape:guide-bbox="true">
    <sodipodi:guide position="696.06998,507.5593" orientation="0,-1" id="SvgjsSodipodi:guide1055"></sodipodi:guide>
    <sodipodi:guide position="823.14127,477.62703" orientation="1,0" id="SvgjsSodipodi:guide1054"></sodipodi:guide>
    <sodipodi:guide position="916.61169,441.26201" orientation="1,0" id="SvgjsSodipodi:guide1053"></sodipodi:guide>
  </sodipodi:namedview>
  <defs id="SvgjsDefs1052">
    <inkscape:path-effect effect="fill_between_many" method="originald" linkedpaths="#path5729,0,1" id="SvgjsInkscape:path-effect1051" is_visible="true" lpeversion="0" join="true" close="true" autoreverse="true" applied="false"></inkscape:path-effect>
  </defs>
  <g id="SvgjsG1050" transform="translate(-924.42542,-664.05829)">
    <g id="SvgjsG1049" transform="matrix(3.6429229,0,0,3.6429229,-2697.6765,9138.3926)">
      <text xml:space="preserve" style="font-style:normal;font-variant:normal;font-weight:normal;font-stretch:normal;font-size:146.403px;line-height:1.25;font-family:sans-serif;-inkscape-font-specification:'sans-serif, Normal';font-variant-ligatures:normal;font-variant-caps:normal;font-variant-numeric:normal;font-variant-east-asian:normal;fill:#000000;fill-opacity:1;stroke:none;stroke-width:0.274505;stroke-miterlimit:4;stroke-dasharray:none" x="1040.5649" y="-2213.281" id="SvgjsText1048" svgjs:data="{&quot;leading&quot;:&quot;1.3&quot;}"><tspan sodipodi:role="line" id="SvgjsTspan1047" style="font-style:normal;font-variant:normal;font-weight:normal;font-stretch:normal;font-size:146.403px;font-family:sans-serif;-inkscape-font-specification:'sans-serif, Normal';font-variant-ligatures:normal;font-variant-caps:normal;font-variant-numeric:normal;font-variant-east-asian:normal;stroke-width:0.274505;stroke-miterlimit:4;stroke-dasharray:none" x="1040.5649" y="-2213.281" svgjs:data="{&quot;leading&quot;:&quot;1.3&quot;}"></tspan></text>
      <g id="SvgjsG1046" style="fill:#000000;stroke:#000000" transform="translate(-5.3354138,-11.875598)">
        <path id="SvgjsPath1045" style="fill:#000000;stroke:#000000;stroke-width:0.274505px;stroke-linecap:butt;stroke-linejoin:miter;stroke-opacity:1" d="m 1184.7736,-2247.9466 15.8736,0.1462 m -25.7556,-0.1462 -15.8736,0.1462 m 15.8736,-0.1462 h 9.882 m -25.7556,0.1462 v -4.941 m 15.8736,0.1462 -15.8736,-0.1462 m 41.6292,4.941 v -4.941 m -15.8736,0.1462 15.8736,-0.1462 m -25.2662,-79.5402 h 9.882 m -25.7556,0.1462 v 4.941 m 15.8736,-5.0872 -15.8736,0.1462 m 15.8736,4.7948 -15.8736,0.1462 m 41.6292,-4.941 v 4.941 m -15.8736,-5.0872 15.8736,0.1462 m -15.8736,4.7948 15.8736,0.1462 m -15.8736,-0.1462 -0.4894,74.5992 m -9.3926,-74.5992 -0.4894,74.5992"></path>
      </g>
      <path style="fill:none;stroke:none;stroke-width:1.77338;stroke-linejoin:round" d="m 599.40186,289.50401 v -7.53686 h 29.26074 29.26074 l 0.42364,-99.30919 c 0.23301,-54.62005 0.43251,-116.26711 0.44335,-136.993469 l 0.0197,-37.6842887 -28.81739,0.014822 -28.8174,0.014822 V 0.458167 -7.0935131 h 74.48189 74.48189 V 0.51022505 8.1139631 l -28.10874,-0.71535 -28.10873,-0.7153499 -1.13249,6.8552938 c -0.62287,3.770411 -1.14128,65.709285 -1.15201,137.641943 l -0.0195,130.78665 h 28.37405 28.37406 v 7.53686 7.53685 h -74.48189 -74.48189 z" id="SvgjsPath1044" transform="matrix(0.27450485,0,0,0.27450485,994.77656,-2329.7761)"></path>
      <path style="fill:none;stroke:none;stroke-width:1.77338;stroke-linejoin:round" d="m 599.40186,289.50401 v -7.53686 h 29.26074 29.26074 l 0.42364,-99.30919 c 0.23301,-54.62005 0.43251,-116.26711 0.44335,-136.993469 l 0.0197,-37.6842887 -28.81739,0.014822 -28.8174,0.014822 V 0.458167 -7.0935131 h 74.48189 74.48189 V 0.51022505 8.1139631 l -28.10874,-0.71535 -28.10873,-0.7153499 -1.13249,6.8552938 c -0.62287,3.770411 -1.14128,65.709285 -1.15201,137.641943 l -0.0195,130.78665 h 28.37405 28.37406 v 7.53686 7.53685 h -74.48189 -74.48189 z" id="SvgjsPath1043" transform="matrix(0.27450485,0,0,0.27450485,994.77656,-2329.7761)"></path>
      <path style="fill:none;stroke:none;stroke-width:1.77338;stroke-linejoin:round" d="m 599.40186,289.50401 v -7.53686 h 29.26074 29.26074 l 0.42364,-99.30919 c 0.23301,-54.62005 0.43251,-116.26711 0.44335,-136.993469 l 0.0197,-37.6842887 -28.81739,0.014822 -28.8174,0.014822 V 0.458167 -7.0935131 h 74.48189 74.48189 V 0.51022505 8.1139631 l -28.10874,-0.71535 -28.10873,-0.7153499 -1.13249,6.8552938 c -0.62287,3.770411 -1.14128,65.709285 -1.15201,137.641943 l -0.0195,130.78665 h 28.37405 28.37406 v 7.53686 7.53685 h -74.48189 -74.48189 z" id="SvgjsPath1042" transform="matrix(0.27450485,0,0,0.27450485,994.77656,-2329.7761)"></path>
      <path inkscape:original-d="M 0,0" inkscape:path-effect="#path-effect6033" d="m 599.40186,289.50401 v -7.53686 h 29.26074 29.26074 l 0.42364,-99.30919 c 0.23301,-54.62005 0.43251,-116.26711 0.44335,-136.993469 l 0.0197,-37.6842887 -28.81739,0.014822 -28.8174,0.014822 V 0.458167 -7.0935131 h 74.48189 74.48189 V 0.51022505 8.1139631 l -28.10874,-0.71535 -28.10873,-0.7153499 -1.13249,6.8552938 c -0.62287,3.770411 -1.14128,65.709285 -1.15201,137.641943 l -0.0195,130.78665 h 28.37405 28.37406 v 7.53686 7.53685 h -74.48189 -74.48189 z" id="SvgjsPath1041"></path>
      <path style="fill:none;stroke:none;stroke-width:1.77338;stroke-linejoin:round" d="m 599.40186,289.50401 v -7.53686 h 29.26074 29.26074 l 0.42364,-99.30919 c 0.23301,-54.62005 0.43251,-116.26711 0.44335,-136.993469 l 0.0197,-37.6842887 -28.81739,0.014822 -28.8174,0.014822 V 0.458167 -7.0935131 h 74.48189 74.48189 V 0.51022505 8.1139631 l -28.10874,-0.71535 -28.10873,-0.7153499 -1.13249,6.8552938 c -0.62287,3.770411 -1.14128,65.709285 -1.15201,137.641943 l -0.0195,130.78665 h 28.37405 28.37406 v 7.53686 7.53685 h -74.48189 -74.48189 z" id="SvgjsPath1040" transform="matrix(0.27450485,0,0,0.27450485,994.77656,-2329.7761)"></path>
      <path style="fill:none;stroke:none;stroke-width:1.77338;stroke-linejoin:round" d="m 599.40186,289.50401 v -7.53686 h 29.26074 29.26074 l 0.42364,-99.30919 c 0.23301,-54.62005 0.43251,-116.26711 0.44335,-136.993469 l 0.0197,-37.6842887 -28.81739,0.014822 -28.8174,0.014822 V 0.458167 -7.0935131 h 74.48189 74.48189 V 0.51022505 8.1139631 l -28.10874,-0.71535 -28.10873,-0.7153499 -1.13249,6.8552938 c -0.62287,3.770411 -1.14128,65.709285 -1.15201,137.641943 l -0.0195,130.78665 h 28.37405 28.37406 v 7.53686 7.53685 h -74.48189 -74.48189 z" id="SvgjsPath1039" transform="matrix(0.27450485,0,0,0.27450485,994.77656,-2329.7761)"></path>
      <path style="fill:none;stroke:none;stroke-width:1.77338;stroke-linejoin:round" d="m 599.40186,289.50401 v -7.53686 h 29.26074 29.26074 l 0.42364,-99.30919 c 0.23301,-54.62005 0.43251,-116.26711 0.44335,-136.993469 l 0.0197,-37.6842887 -28.81739,0.014822 -28.8174,0.014822 V 0.458167 -7.0935131 h 74.48189 74.48189 V 0.51022505 8.1139631 l -28.10874,-0.71535 -28.10873,-0.7153499 -1.13249,6.8552938 c -0.62287,3.770411 -1.14128,65.709285 -1.15201,137.641943 l -0.0195,130.78665 h 28.37405 28.37406 v 7.53686 7.53685 h -74.48189 -74.48189 z" id="SvgjsPath1038" transform="matrix(0.27450485,0,0,0.27450485,994.77656,-2329.7761)"></path>
      <path style="fill:none;stroke:none;stroke-width:1.77338;stroke-linejoin:round" d="m 599.40186,289.50401 v -7.53686 h 29.26074 29.26074 l 0.42364,-99.30919 c 0.23301,-54.62005 0.43251,-116.26711 0.44335,-136.993469 l 0.0197,-37.6842887 -28.81739,0.014822 -28.8174,0.014822 V 0.458167 -7.0935131 h 74.48189 74.48189 V 0.51022505 8.1139631 l -28.10874,-0.71535 -28.10873,-0.7153499 -1.13249,6.8552938 c -0.62287,3.770411 -1.14128,65.709285 -1.15201,137.641943 l -0.0195,130.78665 h 28.37405 28.37406 v 7.53686 7.53685 h -74.48189 -74.48189 z" id="SvgjsPath1037" transform="matrix(0.27450485,0,0,0.27450485,994.77656,-2329.7761)"></path>
      <g id="SvgjsG1036">
        <g id="SvgjsG1035">
          <g id="SvgjsG1034">
            <g id="SvgjsG1033" style="fill:none" transform="matrix(1.4305626,0,0,1.4305626,-595.58077,1138.6614)">
              <path style="fill:none;stroke:#000000;stroke-width:0.274505px;stroke-linecap:butt;stroke-linejoin:miter;stroke-opacity:1" d="m 1220.2408,-2320.8264 v 68.1556" id="SvgjsPath1032"></path>
              <path style="fill:none;stroke:#000000;stroke-width:0.274505px;stroke-linecap:butt;stroke-linejoin:miter;stroke-opacity:1" d="m 1230.6718,-2320.8264 v 68.1556" id="SvgjsPath1031"></path>
              <path style="fill:none;stroke:#000000;stroke-width:0.274505px;stroke-linecap:butt;stroke-linejoin:miter;stroke-opacity:1" d="m 1220.2408,-2320.8264 h -15.2271" id="SvgjsPath1030"></path>
              <path style="fill:none;stroke:#000000;stroke-width:0.274505px;stroke-linecap:butt;stroke-linejoin:miter;stroke-opacity:1" d="m 1245.8989,-2320.8264 h -15.2271" id="SvgjsPath1029"></path>
              <path style="fill:none;stroke:#000000;stroke-width:0.274505px;stroke-linecap:butt;stroke-linejoin:miter;stroke-opacity:1" d="m 1245.8989,-2320.8264 v -6.0238" id="SvgjsPath1028"></path>
              <path style="fill:none;stroke:#000000;stroke-width:0.274505px;stroke-linecap:butt;stroke-linejoin:miter;stroke-opacity:1" d="m 1205.0137,-2320.8264 v -6.0238" id="SvgjsPath1027"></path>
              <path style="fill:none;stroke:#000000;stroke-width:0.274505px;stroke-linecap:butt;stroke-linejoin:miter;stroke-opacity:1" d="m 1245.8989,-2326.8502 h -15.2271" id="SvgjsPath1026"></path>
              <path style="fill:none;stroke:#000000;stroke-width:0.274505px;stroke-linecap:butt;stroke-linejoin:miter;stroke-opacity:1" d="m 1220.2408,-2326.8502 h -15.2271" id="SvgjsPath1025"></path>
              <path style="fill:none;stroke:#000000;stroke-width:0.274505px;stroke-linecap:butt;stroke-linejoin:miter;stroke-opacity:1" d="m 1220.2408,-2326.8502 h 10.431" id="SvgjsPath1024"></path>
              <path style="fill:none;stroke:#000000;stroke-width:0.274505px;stroke-linecap:butt;stroke-linejoin:miter;stroke-opacity:1" d="m 1220.2408,-2252.6708 h -15.2271" id="SvgjsPath1023"></path>
              <path style="fill:none;stroke:#000000;stroke-width:0.274505px;stroke-linecap:butt;stroke-linejoin:miter;stroke-opacity:1" d="m 1245.8989,-2252.6708 h -15.2271" id="SvgjsPath1022"></path>
              <path style="fill:none;stroke:#000000;stroke-width:0.274505px;stroke-linecap:butt;stroke-linejoin:miter;stroke-opacity:1" d="m 1245.8989,-2252.6708 v 6.0238" id="SvgjsPath1021"></path>
              <path style="fill:none;stroke:#000000;stroke-width:0.274505px;stroke-linecap:butt;stroke-linejoin:miter;stroke-opacity:1" d="m 1205.0137,-2252.6708 v 6.0238" id="SvgjsPath1020"></path>
              <path style="fill:none;stroke:#000000;stroke-width:0.274505px;stroke-linecap:butt;stroke-linejoin:miter;stroke-opacity:1" d="m 1245.8989,-2246.647 h -15.2271" id="SvgjsPath1019"></path>
              <path style="fill:none;stroke:#000000;stroke-width:0.274505px;stroke-linecap:butt;stroke-linejoin:miter;stroke-opacity:1" d="m 1220.2408,-2246.647 h -15.2271" id="SvgjsPath1018"></path>
              <path style="fill:none;stroke:#000000;stroke-width:0.274505px;stroke-linecap:butt;stroke-linejoin:miter;stroke-opacity:1" d="m 1220.2408,-2246.647 h 10.431" id="SvgjsPath1017"></path>
            </g>
            <path style="fill:none;stroke:#000000;stroke-width:0.873074;stroke-linejoin:round;stroke-miterlimit:4;stroke-dasharray:none" d="m 1063.1721,-2036.9885 v -3.9299 l 10.7101,-0.1331 10.7105,-0.133 v -48.9966 -48.9967 l -10.7105,-0.133 -10.7101,-0.1331 v -3.9297 -3.9299 h 28.807 28.807 v 3.93 3.93 l -10.9565,0.1332 -10.9565,0.133 v 48.9966 48.9966 l 10.9565,0.1331 10.9565,0.133 v 3.9301 3.9299 h -28.807 -28.807 z" id="SvgjsPath1016"></path>
            <path style="fill:none;stroke:#000000;stroke-width:0.873074;stroke-linejoin:round;stroke-miterlimit:4;stroke-dasharray:none" d="m 895.58676,-2066.5939 v -3.4471 h 10.8334 10.83354 v -49.7352 -49.7354 h -10.83354 -10.8334 v -3.4469 -3.4469 h 28.31464 28.3147 v 3.4469 3.4469 h -11.0797 -11.0796 v 49.7354 49.7352 h 11.0796 11.0797 v 3.4471 3.4469 h -28.3147 -28.31464 z" id="SvgjsPath1015"></path>
            <path style="fill:none;stroke:#000000;stroke-width:0.873074;stroke-linejoin:round;stroke-miterlimit:4;stroke-dasharray:none" d="m 1186.7556,-2080.9705 v -2.9547 h 10.8333 10.8335 v -50.2276 -50.2277 h -10.8335 -10.8333 v -2.9546 -2.9546 h 27.8222 27.8222 v 2.9546 2.9546 h -11.0797 -11.0795 v 50.2277 50.2276 h 11.0795 11.0797 v 2.9547 2.9546 h -27.8222 -27.8222 z" id="SvgjsPath1014"></path>
            <g id="SvgjsG1013">
              <g id="SvgjsG1012" transform="translate(-0.026805,2.0696704)">
                <g id="SvgjsG1011" transform="matrix(0.47698801,0,0,0.47698801,598.98231,-1182.991)" style="stroke:#058ed9;stroke-opacity:1">
                  <path style="fill:none;stroke:#058ed9;stroke-width:5;stroke-linecap:butt;stroke-linejoin:round;stroke-miterlimit:4;stroke-dasharray:none;stroke-opacity:1" d="m 896.70578,-2398.66 c 0,0 -11.16695,186.488 -65.88498,261.3065" id="SvgjsPath1010"></path>
                  <path style="fill:none;stroke:#058ed9;stroke-width:5;stroke-linecap:round;stroke-linejoin:round;stroke-miterlimit:4;stroke-dasharray:none;stroke-opacity:1" d="m 896.70578,-2398.66 c 0,0 68.11837,75.9352 92.68565,180.9045 0,0 -0.085,-0.1445 -0.25654,-0.4229 -2.23722,-3.6307 -19.19815,-30.0412 -54.46149,-55.9701" id="SvgjsPath1009"></path>
                  <path style="fill:none;stroke:#058ed9;stroke-width:3;stroke-linecap:round;stroke-linejoin:round;stroke-miterlimit:4;stroke-dasharray:none;stroke-opacity:1" d="m 830.8208,-2137.3535 c 0,0 85.98548,-20.1005 75.93523,-154.1039" id="SvgjsPath1008"></path>
                  <path style="fill:none;stroke:#058ed9;stroke-width:3;stroke-linecap:round;stroke-linejoin:round;stroke-miterlimit:4;stroke-dasharray:none;stroke-opacity:1" d="m 900.05586,-2207.7053 c 0,0 60.30151,-22.3339 20.10051,-122.8364" id="SvgjsPath1007"></path>
                </g>
                <g id="SvgjsG1006" transform="matrix(-0.47698801,0,0,0.47698801,1542.838,-1182.991)" style="stroke:#058ed9;stroke-opacity:1">
                  <path style="fill:none;stroke:#058ed9;stroke-width:5;stroke-linecap:butt;stroke-linejoin:round;stroke-miterlimit:4;stroke-dasharray:none;stroke-opacity:1" d="m 896.70578,-2398.66 c 0,0 -11.16695,186.488 -65.88498,261.3065" id="SvgjsPath1005"></path>
                  <path style="fill:none;stroke:#058ed9;stroke-width:5;stroke-linecap:round;stroke-linejoin:round;stroke-miterlimit:4;stroke-dasharray:none;stroke-opacity:1" d="m 896.70578,-2398.66 c 0,0 68.11837,75.9352 92.68565,180.9045 0,0 -0.085,-0.1445 -0.25654,-0.4229 -2.23722,-3.6307 -19.19815,-30.0412 -54.46149,-55.9701" id="SvgjsPath1004"></path>
                  <path style="fill:none;stroke:#058ed9;stroke-width:3;stroke-linecap:round;stroke-linejoin:round;stroke-miterlimit:4;stroke-dasharray:none;stroke-opacity:1" d="m 830.8208,-2137.3535 c 0,0 85.98548,-20.1005 75.93523,-154.1039" id="SvgjsPath1003"></path>
                  <path style="fill:none;stroke:#058ed9;stroke-width:3;stroke-linecap:round;stroke-linejoin:round;stroke-miterlimit:4;stroke-dasharray:none;stroke-opacity:1" d="m 900.05586,-2207.7053 c 0,0 60.30151,-22.3339 20.10051,-122.8364" id="SvgjsPath1002"></path>
                </g>
              </g>
              <path style="fill:#000000;stroke:#000000;stroke-width:0.873074;stroke-linejoin:round;stroke-miterlimit:4;stroke-dasharray:none" d="m 1043.5535,-2209.7895 v -2.4621 h 10.8336 10.8334 v -50.7202 -50.7202 h -10.8334 -10.8336 v -2.4621 -2.4622 h 27.3299 27.3298 v 2.4622 2.4621 h -11.0797 -11.0796 v 50.7202 50.7202 h 11.0796 11.0797 v 2.4621 2.4621 h -27.3298 -27.3299 z" id="SvgjsPath1001"></path>
            </g>
          </g>
        </g>
      </g>
      <path style="fill:none;stroke:#000000;stroke-width:0.610301;stroke-linejoin:round;stroke-miterlimit:4;stroke-dasharray:none" d="m 1245.8989,-2219.9698 v -1.3769 h 7.5728 7.5729 v -35.7989 -35.7989 h -7.5729 -7.5728 v -1.3769 -1.3769 h 18.76 18.76 v 1.3769 1.3769 h -7.745 -7.7449 v 35.7989 35.7989 h 7.7449 7.745 v 1.3769 1.3768 h -18.76 -18.76 z" id="SvgjsPath1000"></path>
    </g>
  </g>
</svg><style>@media (prefers-color-scheme: light) { :root { filter: none; } }
</style></svg>